<svg xmlns="http://www.w3.org/2000/svg" viewBox="0 0 500 420"><defs><linearGradient id="bg" x2="1" y2="1"><stop stop-color="#171c33"/><stop offset="1" stop-color="#0c1020"/></linearGradient><linearGradient id="metal" x1="0" y1="0" x2=".9" y2="1"><stop stop-color="#d7d2f5"/><stop offset=".4" stop-color="#8c83b1"/><stop offset="1" stop-color="#454766"/></linearGradient><radialGradient id="glow"><stop stop-color="#7d55e9" stop-opacity=".35"/><stop offset="1" stop-color="#7d55e9" stop-opacity="0"/></radialGradient></defs><rect width="500" height="420" fill="url(#bg)"/><circle cx="260" cy="230" r="195" fill="url(#glow)"/><ellipse cx="250" cy="353" rx="135" ry="17" fill="#000" opacity=".35"/><g transform="rotate(-7 250 210)"><path d="M218 111V89q32-22 64 0v22" fill="none" stroke="#7c85a1" stroke-width="15"/><path d="M176 137q74-52 148 0l24 178q-94 39-188 0z" fill="url(#metal)"/><path d="M185 165q65-40 130 0" fill="none" stroke="#d1d0e6" stroke-width="5"/><rect x="186" y="224" width="129" height="82" rx="20" fill="#41465f"/><path d="M199 241h102" stroke="#c0b3eb" stroke-width="4"/><path d="M301 241v16" stroke="#50d6f8" stroke-width="7"/><rect x="232" y="180" width="36" height="13" rx="5" fill="#9c7ced"/></g></svg>